<svg width="295.8" height="427.5" viewBox="108 42.3 295.8 427.5" xmlns="http://www.w3.org/2000/svg"><g><g><g id="XMLID_893_"><g><path d="m401.7008667 383.6615601v15.7307129c0 9.1954041-3.9774475 17.4316406-10.1802063 22.8286743-2.6473389 2.3148499-5.6911621 4.1053162-9.0035706 5.2307739-2.6089783.8824463-5.37146 1.3684387-8.2490234 1.3684387s-5.6400146-.4859924-8.2490234-1.3684387c-3.2995911-1.1254578-6.3434143-2.9159241-8.9907837-5.2307739-6.2027588-5.3842468-10.1929626-13.6332703-10.1929626-22.8286743v-15.7307129h15.7434692 23.5192871z" fill="#f4a548"/><path d="m393.336731 424.3695374c7.4816895 9.9499817 7.2770386 25.4888306-3.977417 34.7225952-4.9622192 4.0797729-12.1113586-2.9926453-7.1107788-7.0979919 7.2258606-5.9341736 7.8908997-16.434082 2.6729126-22.4066162 3.0694274-1.253357 5.9085998-3.0310365 8.4152832-5.2179871z" fill="#47535f"/><path d="m393.336731 424.3695374c-2.5066833 2.1869507-5.3458557 3.9646301-8.4152832 5.2179871-.6906128-.8057251-1.4963379-1.5219116-2.4043579-2.1358032 3.3124084-1.1254578 6.3562317-2.9159241 9.0035706-5.2307739.6522521.6778258 1.2661437 1.3940123 1.8160705 2.14859z" fill="#39434d"/><path d="m390.4719543 142.1251526v23.6727753c0 16.4213104-13.4414063 29.8627319-29.8755188 29.8627319h-4.2460022v-83.3982315h4.2460022c16.4341126 0 29.8755188 13.4414291 29.8755188 29.8627243z" fill="#47535f"/><path d="m386.098053 377.9831848v5.6783752h-23.5192871c0-1.8927917 0-3.7855835 0-5.6783752z" fill="#39434d"/><path d="m375.9178772 257.0103455c0 2.7113037-.6778259 5.3586731-1.9311523 7.9292908-.051178.1151123-.1023254.242981-.1662598.3580933h.0127869l-12.1497192 24.491272-32.7914734 66.1072693c-3.3507385 7.3921509-14.6819763 13.7867432-30.5789185 17.9048462-10.8580017 2.826416-23.8390198 4.6040955-37.8815308 4.9110413-1.4707642.0383606-2.9671021.0511475-4.4634247.0511475-1.4323883 0-2.8519897-.0127869-4.2588043-.0511475-14.042511-.2941589-27.0363159-2.0462646-37.9071198-4.8598938-15.9992676-4.118103-27.3944244-10.538269-30.7579803-17.9559937l-32.7914429-66.1072693-12.1497192-24.491272h.0127869c-.0639496-.1151123-.115097-.242981-.1662598-.3580933-1.2533417-2.5706177-1.9311676-5.2179871-1.9311676-7.9292908 0-11.4463196 11.6765137-21.8950806 30.8475037-29.7859955 21.9590149-9.0291595 53.7401123-14.70755 89.1022034-14.70755s67.1431732 5.6783905 89.1021881 14.70755c19.1709899 7.8909149 30.8475036 18.3396759 30.8475036 29.7859955zm-79.0498962 28.9291076c0-22.5984802-18.3141174-40.8997803-40.8997955-40.8997803s-40.8997955 18.3013-40.8997955 40.8997803c0 22.5856934 18.3141022 40.8998108 40.8997955 40.8998108s40.8997955-18.3141174 40.8997955-40.8998108z" fill="#ea803c"/><path d="m373.9867249 264.9396362c1.3172607 1.4451904 2.5322571 2.9671021 3.6576843 4.5657349l-14.9889221 30.2208252h-.0127869c0-1.7137451-.0255737-3.4274902-.1278687-5.1284485-.0895386-1.6498108-.3836975-3.261261-.8312988-4.8087463l12.1497192-24.491272h-.0127869c.0639344-.1151123.1150819-.242981.1662599-.3580933z" fill="#39434d"/><path d="m366.2876282 451.9941406c5.0133667 4.1053467-2.1485901 11.1777649-7.1107788 7.0979919-11.2544861-9.2337646-11.4591064-24.7982178-3.9774475-34.7225952 2.5066833 2.1869507 5.3458862 3.9646301 8.4152832 5.2179871-5.2179871 5.9725342-4.5401612 16.4852295 2.6729431 22.4066162z" fill="#47535f"/><path d="m357.0282593 422.2209473c2.6473694 2.3148499 5.6911926 4.1053162 8.9907837 5.2307739-.90802.6138916-1.7137451 1.3300781-2.4043579 2.1358032-3.069397-1.2533569-5.9085999-3.0310364-8.4152832-5.2179871.5627441-.7417908 1.1638184-1.4579773 1.8160706-2.1358032z" fill="#39434d"/><path d="m362.6554871 299.7261963 14.9889221-30.2208252c3.5809631 5.1028748 6.1771851 10.9603271 7.4177246 17.3677063 1.3684387 7.0340576 1.0359192 14.1959839 1.0359192 21.3195496v33.7122803 36.0782776h-23.5192871c0-1.0103455 0-2.0206909 0-3.0438232 0-21.6776733 0-43.368103 0-65.0457764 0-3.3763428.1023254-6.7782593.0639343-10.1673889h.0127869z" fill="#47535f"/><path d="m349.981 112.262h6.369v83.398h-6.369z" fill="#39434d"/><path d="m349.9814148 195.6606598v7.8141937c0 5.9725342-.8824463 11.7404633-2.5194702 17.2014313-23.0332947-8.9524231-55.5050049-14.5285034-91.4937592-14.5285034s-68.4604797 5.5760803-91.4937897 14.5285034c-1.6370087-5.460968-2.5194702-11.2288971-2.5194702-17.2014313v-7.8141937-83.3982315-7.8141861c0-33.0983963 27.0746918-60.1730804 60.1730804-60.1730804h67.6803436c33.0983887 0 60.1730652 27.0746841 60.1730652 60.1730804v7.8141861 83.3982315zm-24.3122253-69.9568024c0-14.4261932-11.8044128-26.2306061-26.2305908-26.2306061h-86.9408417c-7.213089 0-13.773941 2.9542999-18.5315094 7.6990891-4.7447815 4.7575684-7.6990814 11.3184204-7.6990814 18.531517 0 14.4261932 11.8043976 26.2306061 26.2305908 26.2306061h86.9408417c7.2131042 0 13.7739258-2.9542999 18.5315247-7.6990967 4.7447814-4.7575683 7.6990661-11.3184204 7.6990661-18.5315094zm-51.1567078 36.0782624h-37.0886078c0 2.8136292 2.3020477 5.1156769 5.1156616 5.1156769h26.8572845c2.8135987-.0000001 5.1156617-2.3020478 5.1156617-5.1156769z" fill="#ea803c"/><path d="m347.4619446 220.6762848c-.6266479 2.1102142-1.3684387 4.169281-2.2253113 6.1643829l-.1662598.3836823c-21.9590149-9.0291595-53.7401123-14.70755-89.1021881-14.70755s-67.1431885 5.6783905-89.1022034 14.70755c-.9208221-2.1230011-1.7265472-4.3099518-2.3915863-6.5480652 23.0333099-8.9524231 55.5050354-14.5285034 91.4937897-14.5285034s68.4604645 5.5760803 91.4937592 14.5285034z" fill="#c9652e"/><path d="m299.4385986 99.4732513c14.426178 0 26.2305908 11.8044128 26.2305908 26.2306061 0 7.213089-2.9542847 13.773941-7.6990662 18.5315094-4.7575989 4.7447968-11.3184204 7.6990967-18.5315247 7.6990967h-86.9408415c-14.4261932 0-26.2305908-11.8044128-26.2305908-26.2306061 0-7.2130966 2.9542999-13.7739487 7.6990814-18.531517 4.7575684-4.7447891 11.3184204-7.6990891 18.5315094-7.6990891zm-4.0413818 26.2306061c0-6.7782669-5.4993591-12.2776108-12.2776184-12.2776108s-12.2776184 5.4993439-12.2776184 12.2776108c0 6.7782593 5.4993591 12.2776031 12.2776184 12.2776031s12.2776184-5.4993438 12.2776184-12.2776031zm-54.3028564 0c0-6.7782669-5.4993439-12.2776108-12.2776031-12.2776108-6.7782745 0-12.2776184 5.4993439-12.2776184 12.2776108 0 6.7782593 5.4993439 12.2776031 12.2776184 12.2776031 6.7782592.0000001 12.2776031-5.4993438 12.2776031-12.2776031z" fill="#fffae0"/><path d="m299.7455444 467.7248535h-41.500885c0-7.7374573 4.2460022-14.4901428 10.5254822-18.0583191 3.0182495-1.7137756 6.5097046-2.6985168 10.2313538-2.6985168 4.0029907 0 7.7246704 1.1382141 10.8963623 3.0949707 5.9085998 3.6577148 9.8476867 10.2057495 9.8476867 17.6618652z" fill="#f4a548"/><path d="m298.3131409 373.8011169v.0127869l-.7161865 6.4329529c-10.7429199 2.4555359-23.1611938 3.9774475-36.4747314 4.2971802l-.6906128-5.8318787c14.0425109-.3069458 27.023529-2.0846252 37.8815307-4.9110413z" fill="#39434d"/><path d="m297.5969543 380.2468567-7.1491394 64.8283386c-3.4403076-1.7521057-7.3282166-2.7368774-11.4463196-2.7368774-3.8623352 0-7.5328369.8696594-10.8068542 2.4171448l-7.0724182-60.2114258c13.3135376-.3197327 25.7318115-1.8416443 36.4747314-4.2971802z" fill="#47535f"/><circle cx="283.12" cy="125.704" fill="#47535f" r="12.278"/><path d="m290.4478149 445.0751953-.5499573 4.987793c-3.1716919-1.9567566-6.8933716-3.0949707-10.8963623-3.0949707-3.7216492 0-7.2131042.9847412-10.2313538 2.6985168l-.5755005-4.9110718c3.2740173-1.5474854 6.944519-2.4171448 10.8068542-2.4171448 4.1181032.0000001 8.0060121.9847718 11.4463197 2.7368775z" fill="#39434d"/><path d="m255.9681854 245.0396729c22.5856781 0 40.8997955 18.3013 40.8997955 40.8997803 0 22.5856934-18.3141174 40.8998108-40.8997955 40.8998108s-40.8997955-18.3141174-40.8997955-40.8998108c0-22.5984803 18.3141022-40.8997803 40.8997955-40.8997803zm4.3227387 41.5392456 2.7624512-18.3908386h-14.1703949l2.7624512 18.3908386zm1.9695434 10.589447c0-3.4786682-2.8136292-6.2922668-6.2922821-6.2922668-3.4786682 0-6.2922821 2.8135986-6.2922821 6.2922668s2.8136139 6.2922668 6.2922821 6.2922668c3.478653 0 6.2922821-2.8135986 6.2922821-6.2922668z" fill="#fffae0"/><path d="m237.4238739 161.7821198h37.0886078c0 2.8136292-2.302063 5.1156769-5.1156616 5.1156769h-26.8572845c-2.813614-.0000001-5.1156617-2.3020478-5.1156617-5.1156769z" fill="#39434d"/><g fill="#f4a548"><path d="m263.0533752 268.1880798-2.7624511 18.3908387h-8.6454926l-2.7624512-18.3908387z"/><circle cx="255.968" cy="297.168" r="6.292"/><path d="m253.6917114 467.7248535h-41.500885c0-7.7374573 4.2332153-14.4901428 10.5254822-18.0583191 3.0182495-1.7137756 6.4969025-2.6985168 10.2185669-2.6985168 4.003006 0 7.7502289 1.1382141 10.9091644 3.0949707 5.9085999 3.6705017 9.8476715 10.2057495 9.8476715 17.6618652z"/></g><path d="m251.7093811 378.7121582-.6394653 5.8318787c-13.3263092-.2941589-25.7574005-1.8160706-36.513092-4.2460022l-.7545624-6.4329834v-.0127869c10.8708038 2.8136292 23.8646087 4.5657349 37.9071197 4.8598938z" fill="#39434d"/><path d="m251.0699158 384.5440369-6.6759491 60.5311584c-3.4402771-1.7521057-7.328186-2.7368774-11.4590912-2.7368774-3.8623352 0-7.52005.8696594-10.7940674 2.4171448l-7.5839844-64.457428c10.7556916 2.4299316 23.1867829 3.9518432 36.5130921 4.2460022z" fill="#47535f"/><path d="m244.3939667 445.0751953-.5499268 4.987793c-3.1589355-1.9567566-6.9061584-3.0949707-10.9091644-3.0949707-3.7216644 0-7.2003174.9847412-10.2185669 2.6985168l-.5755005-4.9110718c3.2740173-1.5474854 6.9317322-2.4171448 10.7940674-2.4171448 4.1309051.0000001 8.0188141.9847718 11.4590912 2.7368775z" fill="#39434d"/><circle cx="228.817" cy="125.704" fill="#47535f" r="12.278"/><path d="m165.1010742 383.6615601v15.7307129c0 9.1954041-3.9902344 17.4444275-10.1929779 22.8286743-2.6473694 2.3148499-5.6911926 4.1053162-8.990799 5.2307739-2.6089935.8824463-5.3714447 1.3684387-8.2490082 1.3684387-2.8775787 0-5.6400299-.4859924-8.2490234-1.3684387-3.3124008-1.1254578-6.3562241-2.9159241-9.0035858-5.2307739-6.2027512-5.3970337-10.1801834-13.6332703-10.1801834-22.8286743v-15.7307129h15.6027985 23.5192947z" fill="#f4a548"/><path d="m155.586 112.262h6.369v83.398h-6.369z" fill="#39434d"/><path d="m156.7369537 424.3695374c7.4816589 9.9243774 7.2770386 25.4888306-3.9774475 34.7225952-4.9621887 4.0797729-12.1241302-2.9926453-7.1107788-7.0979919 7.2131042-5.9213867 7.8909302-16.434082 2.6729431-22.4066162 3.069397-1.253357 5.9085999-3.0310365 8.4152832-5.2179871z" fill="#47535f"/><path d="m145.9172974 427.4517212c3.2996063-1.1254578 6.3434296-2.9159241 8.990799-5.2307739l.0127869.0127869c.6522522.6778259 1.2533417 1.3940125 1.8160706 2.1358032-2.5066833 2.1869507-5.3458862 3.9646301-8.4152832 5.2179871-.690613-.8057252-1.4963381-1.5219117-2.4043733-2.1358033z" fill="#39434d"/><path d="m155.5859222 112.2624283v83.3982315h-4.2460022c-16.4340973 0-29.8755264-13.4414215-29.8755264-29.8627319v-23.6727753c0-16.4212952 13.4414291-29.8627243 29.8755264-29.8627243z" fill="#47535f"/><path d="m149.3575897 377.9831848v5.6783752h-23.5192947c0-1.8927917 0-3.7855835 0-5.6783752z" fill="#39434d"/><path d="m149.2808533 299.7261963h.0127869c-.0383606 3.3891296.0639496 6.7910461.0639496 10.1673889v65.0457764 3.0438232h-23.5192948c0-12.0218201 0-24.0564575 0-36.0782776 0-11.2416992 0-22.4833679 0-33.7122803 0-7.1235657-.3325195-14.2854919 1.0359192-21.3195496 1.2405472-6.4073792 3.8367538-12.2648315 7.4177322-17.3677063z" fill="#47535f"/><path d="m149.4215393 294.5977478c-.1023102 1.7009583-.1278992 3.4147034-.1278992 5.1284485h-.0127869l-14.9889069-30.2208252c1.1254425-1.5986328 2.3404083-3.1205444 3.6576996-4.5657349.0511627.1151123.1023102.242981.1662598.3580933h-.0127869l12.1497192 24.491272c-.4476317 1.5474853-.7417754 3.1589355-.8312987 4.8087463z" fill="#39434d"/><path d="m129.6878357 451.9941406c5.0005646 4.1053467-2.1485825 11.1777649-7.1107864 7.0979919-11.2544708-9.2337646-11.4590988-24.7726135-3.9774323-34.7225952 2.5066833 2.1869507 5.3458786 3.9646301 8.4152832 5.2179871-5.2179871 5.9725342-4.552948 16.4724426 2.6729355 22.4066162z" fill="#47535f"/><path d="m120.4156799 422.2209473c2.6473618 2.3148499 5.691185 4.1053162 9.0035858 5.2307739-.9080353.6138916-1.7137527 1.3300781-2.4043655 2.1358032-3.0694046-1.2533569-5.9085999-3.0310364-8.4152832-5.2179871.5499344-.7545776 1.1638184-1.4707641 1.8160629-2.14859z" fill="#39434d"/></g></g></g><g id="XMLID_892_" opacity=".32"><g><path d="m299.4375 99.4703751c14.426178 0 26.2433777 11.8044128 26.2433777 26.2306061-11.216095 2.2764664-21.6137085 3.7855911-31.2183838 4.6808395.6011047-1.4451752.9336243-3.0310364.9336243-4.6808395 0-6.7782669-5.4993591-12.2776108-12.2776184-12.2776108s-12.2776184 5.4993439-12.2776184 12.2776108c0 2.071846.5115662 4.0158005 1.4196167 5.7295456-12.0218506-.0255737-22.49617-1.0870819-31.5381317-2.7368774.2429962-.9591904.3708954-1.956749.3708954-2.9926682 0-6.7782669-5.4993439-12.2776108-12.2776184-12.2776108-5.5377045 0-10.2313385 3.6704941-11.7532501 8.7222137-16.75383-6.4969025-23.9924927-14.0169373-23.9924927-14.0169373.2941437-.3197327.6010895-.6522446.90802-.9591904 4.7447968-4.7447815 11.3056335-7.6990814 18.5187378-7.6990814h86.9408416z" fill="#a6ecfd"/><path d="m325.6808777 125.7009811c0 7.2130966-2.9542847 13.7739487-7.7118835 18.531517-4.7575684 4.7447815-11.3184204 7.6990814-18.5314941 7.6990814h-86.9408417c-14.4261932 0-26.2306061-11.8044128-26.2306061-26.2305984 0-6.7398987 2.5834198-12.9042816 6.8038483-17.5723343 0 0 7.2386627 7.5200348 23.9924927 14.0169373-.3453064 1.1254501-.524353 2.3148422-.524353 3.555397 0 6.7782669 5.4993439 12.2776108 12.2776031 12.2776108 5.7423401 0 10.5766602-3.9518585 11.906723-9.2849426 9.0419617 1.6497955 19.5162811 2.7113037 31.5381317 2.7368774 2.0590515 3.8879089 6.1515808 6.5480652 10.8580017 6.5480652 5.1284485 0 9.5151367-3.1461487 11.3439941-7.5967712 9.6046753-.8952484 20.0022888-2.4043732 31.2183838-4.6808396z" fill="#3ab5cd"/><g fill="#39434d"><path d="m294.4624939 130.3818207c-1.8288574 4.4506226-6.2155457 7.5967712-11.3439941 7.5967712-4.7064209 0-8.7989502-2.6601563-10.8580017-6.5480652 6.8805541.0127869 14.272705-.3069305 22.2019958-1.048706z"/><path d="m217.0623932 122.1455841c6.4329529 2.4938889 14.2727203 4.8343124 23.6599731 6.5480652-1.3300629 5.3330841-6.1643829 9.2849426-11.906723 9.2849426-6.7782593 0-12.2776031-5.4993439-12.2776031-12.2776108 0-1.2405548.1790466-2.4299469.524353-3.555397z"/></g></g></g><g id="XMLID_891_" opacity=".32"><g><path d="m296.8668518 285.9365845c0 3.9006958-.5499268 7.6607056-1.5602722 11.2289124h-.0127869c-13.9913635 3.7600098-24.7854309 3.4402771-33.0856018.7033997.0383606-.2302246.0511475-.4604187.0511475-.7033997 0-3.4786682-2.8135986-6.2922974-6.2922668-6.2922974-1.5858612 0-3.0310364.5883179-4.1309052 1.5475159-17.7897491-13.5821228-17.8281097-40.7846985-17.8281097-40.9893341 6.3434296-4.0541687 13.8762512-6.3945923 21.9590149-6.3945923 22.5856933-.0000001 40.8997802 18.3141021 40.8997802 40.8997955zm-36.5770264.6522522 2.7624512-18.4036255h-14.1704102l2.7624664 18.4036255z" fill="#a6ecfd"/><path d="m295.2937927 297.1654968h.0127869c-4.8854675 17.1246948-20.6545105 29.6708679-39.3395081 29.6708679-22.5856934 0-40.8997955-18.3140869-40.8997955-40.8997803 0-14.5029297 7.5584106-27.2537231 18.9407806-34.5052032 0 .2046356.0383606 27.4072113 17.8281097 40.9893341-1.3300781 1.151001-2.161377 2.8519592-2.161377 4.7447815 0 3.4786377 2.8136292 6.3050537 6.2922821 6.3050537 3.2356567 0 5.895813-2.4555359 6.2411194-5.6016541 8.300171 2.7368775 19.0942384 3.0566102 33.0856019-.7033996z" fill="#3ab5cd"/><path d="m251.8361664 292.4207153c2.8903503 2.2253113 6.3306427 4.1053162 10.3720245 5.4481812-.3453064 3.1461182-3.0054626 5.6016541-6.2411194 5.6016541-3.478653 0-6.2922821-2.826416-6.2922821-6.3050537 0-1.8928223.8312989-3.5937806 2.161377-4.7447816z" fill="#c8843b"/></g></g><g id="XMLID_890_" opacity=".32"><g><path d="m241.1572113 443.7038879v.0127869c-2.5706329-.8824463-5.3330994-1.3684387-8.2234497-1.3684387-3.8623352 0-7.5200348.8568726-10.7940674 2.4043579l-7.5839844-64.4446716c.7545624.1662598 1.5219116.3325195 2.302063.4987793z" fill="#39434d"/><path d="m222.71521 449.6764221c3.0182495-1.726532 6.5096893-2.6985168 10.2185516-2.6985168 2.3787842 0 4.6552582.3964844 6.7782593 1.1382446-19.8615875 1.7521057-19.7464905 19.6058044-19.7464905 19.6058044h-7.7758179c0-7.7502441 4.2460175-14.4901428 10.5254975-18.0455322z" fill="#c8843b"/></g></g><g id="XMLID_889_" opacity=".32"><g><path d="m270.7791443 443.7038879v.0127869c2.5706482-.8824463 5.3330994-1.3684387 8.2234497-1.3684387 3.8623352 0 7.52005.8568726 10.7940674 2.4043579l7.5839844-64.4446716c-.7545776.1662598-1.5219116.3325195-2.302063.4987793z" fill="#39434d"/><path d="m289.2211609 449.6764221c-3.0182495-1.726532-6.5097046-2.6985168-10.2185669-2.6985168-2.3787842 0-4.6552734.3964844-6.7782593 1.1382446 19.8616028 1.7521057 19.7464905 19.6058044 19.7464905 19.6058044h7.7758179c0-7.7502441-4.2460022-14.4901428-10.5254822-18.0455322z" fill="#c8843b"/></g></g><g id="XMLID_888_" opacity=".36"><g><path d="m153.8703461 426.5834961s12.0601959 20.8335571-7.622345 32.6763306c-2.3659973-1.6625977-3.4402924-4.9494019-.6011047-7.2770386 7.2258911-5.9213867 7.8909302-16.4212952 2.6729431-22.3938599 1.9567413-.7929077 3.8111725-1.8032532 5.5505066-3.0054321z" fill="#39434d"/><path d="m152.9111633 383.6629944-30.4894104 7.8909302s-7.3026199 30.6940308 18.2373657 37.088623c-.9847565.1150818-1.9823151.1790466-2.9926605.1790466-2.8775635 0-5.6400299-.4859924-8.2490234-1.3684387-3.3123932-1.1254578-6.3562164-2.9159546-9.0035782-5.2307739-6.2027512-5.3970337-10.180191-13.6332703-10.180191-22.8287048v-15.7306824z" fill="#c8843b"/><path d="m129.6860046 451.9827881c2.0079041 1.6498108 2.0590668 3.7855835 1.074295 5.4737549-20.1045914-8.5175781-9.2977295-30.8730469-9.2977295-30.8730469 1.7393265 1.202179 3.5937576 2.2125244 5.550499 3.0054321-5.2179794 5.9725647-4.5401535 16.48526 2.6729355 22.3938599z" fill="#39434d"/></g></g><g id="XMLID_887_" opacity=".36"><g><path d="m358.1296692 426.5834961s-12.0602112 20.8335571 7.622345 32.6763306c2.3659973-1.6625977 3.4402771-4.9494019.6010742-7.2770386-7.2258911-5.9213867-7.8908997-16.4212952-2.6729431-22.3938599-1.9567261-.7929077-3.8111573-1.8032532-5.5504761-3.0054321z" fill="#39434d"/><path d="m359.0888367 383.6629944 30.4894104 7.8909302s7.3026123 30.6940308-18.2373657 37.088623c.9847717.1150818 1.9823303.1790466 2.9926758.1790466 2.8775635 0 5.6400146-.4859924 8.2489929-1.3684387 3.3124084-1.1254578 6.3562317-2.9159546 9.0036011-5.2307739 6.2027588-5.3970337 10.1801758-13.6332703 10.1801758-22.8287048v-15.7306824z" fill="#c8843b"/><path d="m382.3139954 451.9827881c-2.0079041 1.6498108-2.0590515 3.7855835-1.0743103 5.4737549 20.1046143-8.5175781 9.29776-30.8730469 9.29776-30.8730469-1.7393494 1.202179-3.5937805 2.2125244-5.5505066 3.0054321 5.217987 5.9725647 4.5401611 16.48526-2.6729431 22.3938599z" fill="#39434d"/></g></g><g id="XMLID_886_" opacity=".32"><g><path d="m390.4708557 142.1222992v23.67276c0-38.9814148-27.842041-35.9631653-27.842041-35.9631653l-6.27948 25.4888306v-43.0611649h4.2460022c16.434082 0 29.8755188 13.4414292 29.8755188 29.8627396z" fill="#b0b6bd"/></g></g><g id="XMLID_885_" opacity=".32"><g><path d="m121.4655228 142.1222992v23.67276c0-38.9814148 27.8420334-35.9631653 27.8420334-35.9631653l6.2794952 25.4888306v-43.0611649h-4.2460022c-16.4340973 0-29.8755264 13.4414292-29.8755264 29.8627396z" fill="#b0b6bd"/></g></g><g fill="#c9652e" opacity=".38"><path d="m178.0502014 205.3297119v-101.6410217c0-27.2012787 14.397583-50.4256897 34.2169037-58.6042404-28.4465485 4.7398987-50.3146057 29.6055756-50.3146057 59.3432999v99.0298003c0 5.9697113.8810577 11.743576 2.5195923 17.1980286 0 .0000763.0000763.0001526.0000763.0002289 4.4412384-1.7248688 9.2406158-3.3208618 14.3409119-4.7792358-.4827271-3.4331971-.7628785-6.9494324-.7628785-10.5468598z"/><path d="m299.6692505 45.0844498c19.8193054 8.1785507 34.2168884 31.4029617 34.2168884 58.6042404v101.6410217c0 3.5979767-.2835693 7.1129608-.7692566 10.5451355 5.0980225 1.4575195 9.8954468 3.0526581 14.335144 4.7764282 1.6386108-5.4546814 2.5318298-11.2237854 2.5318298-17.1937256v-99.0298004c.0000001-29.7377243-21.8679809-54.6034012-50.3146056-59.3432998z"/></g><g id="XMLID_884_" opacity=".28"><g><path d="m349.903595 206.4135284c-.242981 4.936615-1.0870667 9.7069855-2.4555054 14.2599335-23.0333252-8.9524231-55.5050354-14.5157166-91.4809875-14.5157166-35.9887543 0-68.4604797 5.5632935-91.4937897 14.5157166-1.6370087-5.4609833-2.5194702-11.2288971-2.5194702-17.2014465v-99.0266037c0-4.6680527.5371552-9.2210007 1.5602875-13.594902h.0127869c-.0000001-.0000001 7.1747283 118.4917297 186.3766784 115.5630187z" fill="#c9652e"/></g></g><path d="m332.1856995 344.8973389c-6.143219 10.6069641-37.9183044 18.6901245-76.217514 18.6901245s-70.0743103-8.0831604-76.2175446-18.6901245l-9.9160614-15.6317749 13.2124176 26.6300354c5.877594 12.9749756 36.2783661 22.8627625 72.9211884 22.8627625s67.0435638-9.8877869 72.9211884-22.8627625l13.2124023-26.6300354z" fill="#c9652e" opacity=".38"/><path d="m255.9681854 227.6832428c55.9438324 0 103.322403 10.6333466 119.4611053 25.3141327-5.4761658-22.6952515-56.864563-40.4850464-119.4611053-40.4850464s-113.9849548 17.7897949-119.4611053 40.4850464c16.1386871-14.6807861 63.5172729-25.3141327 119.4611053-25.3141327z" fill="#f0e7ce" opacity=".26"/><g fill="#39434d"><path d="m125.8428268 312.9821777v67.2703247h18.8595047z" opacity=".65"/><path d="m378.5844116 380.8010254h-16.0107727v-56.4990234z" opacity=".65"/></g></g></svg>